<svg id="Layer_1" data-name="Layer 1" xmlns="http://www.w3.org/2000/svg" viewBox="0 0 1000 1000"><defs><style>.cls-1{fill:#0d0d0d;}</style></defs><title>social-yt</title><g id="Icons"><g id="Black"><g id="Line-3"><path id="Youtube" class="cls-1" d="M425.05,594.82l0-205.41L621.16,492.47Zm430.66-241s-7.1-50.38-28.86-72.56c-27.6-29.13-58.55-29.27-72.73-31-101.58-7.4-254-7.4-254-7.4h-.32s-152.38,0-254,7.4c-14.2,1.69-45.13,1.83-72.76,31-21.75,22.18-28.83,72.56-28.83,72.56S137,413,137,472.14v55.47c0,59.17,7.26,118.32,7.26,118.32s7.08,50.38,28.83,72.56c27.63,29.13,63.91,28.22,80.06,31.26C311.26,755.37,500,757.1,500,757.1s152.54-.23,254.12-7.63c14.18-1.71,45.13-1.85,72.73-31,21.76-22.18,28.86-72.56,28.86-72.56S863,586.78,863,527.61V472.14c0-59.15-7.26-118.32-7.26-118.32Z"/></g></g></g></svg>