<svg id="Layer_1" data-name="Layer 1" xmlns="http://www.w3.org/2000/svg" viewBox="0 0 1000 1000"><defs><style>.cls-1{fill:#0d0d0d;}</style></defs><title>social-sc</title><g id="Icons"><g id="Black"><g id="Line-2"><path id="Snapchat" class="cls-1" d="M506.61,165.67H504.9l-11.82.12a199.69,199.69,0,0,0-78.62,16.59,175.17,175.17,0,0,0-50.14,33.15c-17.31,16.39-31.41,36.59-41.9,60-15.37,34.36-11.72,92.23-8.79,138.74v.07c.31,5,.64,10.18.94,15.25a27,27,0,0,1-11.29,2.12c-8.67,0-19-2.76-30.63-8.21A27.49,27.49,0,0,0,261,421.17a41.44,41.44,0,0,0-20.6,5.75c-8,4.67-13.14,11.28-14.54,18.6-.92,4.85-.87,14.42,9.79,24.13,5.87,5.34,14.49,10.27,25.61,14.66,2.92,1.14,6.38,2.24,10.05,3.4,12.73,4,32,10.13,37,21.92,2.55,6,1.45,13.85-3.25,23.36l-.36.78c-1.17,2.73-12.13,27.48-34.6,53.57a194.68,194.68,0,0,1-41.78,36.88,154,154,0,0,1-58.67,22.84,16.06,16.06,0,0,0-13.47,16.75,21,21,0,0,0,1.65,7l0,0c3.28,7.67,10.9,14.17,23.28,19.91,15.12,7,37.75,12.9,67.24,17.51,1.49,2.83,3,9.93,4.1,14.79,1.13,5.17,2.29,10.48,4,16.12,1.8,6.12,6.46,13.42,18.44,13.42,4.54,0,9.77-1,15.81-2.19,8.86-1.73,21-4.09,36.08-4.09a158.21,158.21,0,0,1,25.8,2.18c16.85,2.8,31.38,13,48.18,24.88,24.6,17.34,52.45,37,95,37,1.16,0,2.33,0,3.47-.11,1.41.06,3.15.11,5,.11,42.56,0,70.4-19.63,95-37l0,0c16.81-11.83,31.32-22.05,48.16-24.85a159.33,159.33,0,0,1,25.8-2.18,180.22,180.22,0,0,1,36.08,3.82,85.6,85.6,0,0,0,15.81,1.94h.79c8.76,0,15.2-4.79,17.66-13.19,1.63-5.52,2.8-10.71,4-16,1-4.56,2.6-11.86,4.09-14.72,29.51-4.62,52.12-10.5,67.25-17.5,12.35-5.71,20-12.21,23.26-19.84a20.55,20.55,0,0,0,1.7-7.07A16.06,16.06,0,0,0,830.32,647C738.39,631.94,697,537.75,695.27,533.75c-.11-.26-.24-.52-.37-.78-4.7-9.51-5.78-17.37-3.23-23.36,5-11.78,24.27-17.88,37-21.91,3.69-1.16,7.17-2.26,10.06-3.4,12.55-4.94,21.51-10.3,27.43-16.39,7.06-7.25,8.44-14.2,8.35-18.75-.21-11-8.65-20.79-22.07-25.58a39.81,39.81,0,0,0-15-2.85,33.58,33.58,0,0,0-13.92,2.83c-10.75,5-20.38,7.76-28.66,8.15a26,26,0,0,1-9.48-2.08c.26-4.29.53-8.7.82-13.3l.12-2c2.95-46.54,6.61-104.45-8.77-138.83-10.54-23.55-24.68-43.81-42.06-60.23a175.42,175.42,0,0,0-50.33-33.15,200.58,200.58,0,0,0-78.59-16.48"/></g></g></g></svg>