<svg id="Layer_1" data-name="Layer 1" xmlns="http://www.w3.org/2000/svg" viewBox="0 0 1000 1000"><title>social-gh</title><path d="M571.79,673c15.08-3,30.26-5.31,45.1-9,38.22-9.53,71.46-27.19,94.29-60.73,17.33-25.44,25.59-54.14,27.71-84.37,1.31-18.55,1.44-37.47-.7-55.9-3-25.87-14.6-48.7-31.56-68.54-3.21-3.75-4.1-6.86-2.59-11.78,9.06-29.5,6.5-58.65-4.31-87.14-1-2.73-6-5.57-9.14-5.62-17.89-.3-34.49,5.54-50.26,13.25-13.56,6.63-26.36,14.79-39.75,21.79-3.25,1.7-7.82,2.81-11.25,2a368.7,368.7,0,0,0-176.32,0c-3.62.87-8.66-.42-12-2.46-24.61-15.15-49.65-29.11-78.67-34-2.91-.48-5.93-.37-8.84-.87-7.35-1.27-10.58,2.42-12.67,9-9,28.4-11.29,56.85-2.41,85.76a10.49,10.49,0,0,1-1.8,8.46c-33.59,39.16-39.4,85-32.67,133.93,4.23,30.74,13.28,59.59,32.83,84.3,24.23,30.63,57.43,46,94.37,54.65,12.89,3,26,4.93,40.08,7.55-12.5,13.67-19.2,29.2-22.26,46.5-.33,1.87-3.36,3.8-5.55,4.72-41.83,17.59-79.07,5.93-103.29-32.17-12.05-19-27.7-33.46-50.44-37.89-6.15-1.2-12.95-.42-19.22.7-5.89,1.06-6.81,5.52-3.09,10a40.61,40.61,0,0,0,9.81,8.94c20.29,12.18,33.16,30.39,41.89,51.67,14.2,34.6,41.55,50,77,52.22,16.71,1.06,33.64-1.13,51.38-1.89,0,23.2.64,47.51-.28,71.76-.44,11.32-13.35,16.93-26.47,12.67a346,346,0,0,1-88.39-43.23C201.77,755.5,146.13,670.65,130,562.17c-27.72-186.79,88.24-361.76,271.45-412.58C595,95.9,797.72,205.23,859,396.32c61.38,191.4-44.35,399.83-235.17,463.59-18.58,6.21-29.31-1.55-29.29-21.31,0-26.44.17-52.89.19-79.33C594.77,712.28,594.54,711.5,571.79,673Z"/><path d="M311.18,714.47c3.48,5.12,5.87,8.31,7.67,11.79.16.32-4.47,4-5,3.66a33,33,0,0,1-7.77-8.08C305.65,721.19,308.36,718.45,311.18,714.47Z"/><path d="M339.5,746.52,331,738.43c2-1.64,4.54-5,5.76-4.57,3.44,1.22,6.31,4,9.41,6.19Z"/><path d="M399,732.61l6.33,7.4c-2.94,1.93-5.71,4.88-8.89,5.42-1.84.31-4.34-3.24-6.54-5.06Z"/><path d="M369.2,736.44l7.64,7c-2.9,2-5.65,5-8.75,5.45-2,.27-4.53-3.37-6.82-5.26Z"/><path d="M301.7,704.46c-3.23,2.11-5.85,4.42-6.34,4a32.13,32.13,0,0,1-6.93-7.6c-.28-.42,3.9-4.6,4.21-4.39C295.46,698.44,297.89,701,301.7,704.46Z"/><path d="M286.52,684.19c-3.44,1.77-5.76,3.66-6.46,3.18A24.75,24.75,0,0,1,274,681c-.25-.36,3-3.88,3.27-3.71A104.6,104.6,0,0,1,286.52,684.19Z"/></svg>