<svg id="Layer_1" data-name="Layer 1" xmlns="http://www.w3.org/2000/svg" viewBox="0 0 1000 1000"><defs><style>.cls-1{fill:#010101;}</style></defs><title>social-lnk</title><path id="LinkedIn" class="cls-1" d="M820.72,568.29V805.44H683.24V584.18c0-55.59-19.89-93.52-69.65-93.52-38,0-60.6,25.56-70.54,50.29-3.63,8.84-4.56,21.15-4.56,33.52v231H401s1.85-374.75,0-413.57H538.48v58.62c-.28.44-.65.91-.91,1.33h.91v-1.33c18.27-28.14,50.89-68.34,123.93-68.34C752.89,382.15,820.72,441.26,820.72,568.29ZM257.1,192.5c-47.05,0-77.82,30.86-77.82,71.44,0,39.7,29.88,71.5,76,71.5h.92c48,0,77.79-31.79,77.79-71.5C333.08,223.36,304.15,192.5,257.1,192.5ZM187.45,805.44H324.92V391.87H187.45Z"/></svg>