<svg id="Layer_1" data-name="Layer 1" xmlns="http://www.w3.org/2000/svg" viewBox="0 0 1000 1000"><title>social-gh copy</title><g id="bbb-raw"><path d="M160.42,645.49c-.15.39-.32.77-.46,1.17-3.64,10-7.82,19.66-12.32,29.25-2.19,4.66-4.86,9-7.42,13.43s-5.47,8.86-8.51,13.07-6.25,8.17-9.65,12A86,86,0,0,1,99.4,733.15a94.54,94.54,0,0,1-12,5.7c-3.13,1.21-6.53,1.7-9.86,2.52-.47-.74-.75-1.42-1.72-1.57a40.87,40.87,0,0,1-15-5.87,74.23,74.23,0,0,1-13.4-10.29,26.78,26.78,0,0,1-5-6.33c-2.26-4.13-1.62-7.34,2.12-10.23a38.22,38.22,0,0,1,3.64-2.34,211.26,211.26,0,0,0,31.46-22.52,4.15,4.15,0,0,1,2.12-1.06,4.42,4.42,0,0,0,1.94-1,68.16,68.16,0,0,0,11.5-12.61,189.08,189.08,0,0,0,18-30.83,380.94,380.94,0,0,0,26.51-75.56,9.89,9.89,0,0,0,.23-3c-1.22-16.07-2.1-32.16-2.43-48.27-.33-15.92-.48-31.85-.3-47.77.15-12.53.74-25.07,1.48-37.58.58-10,1.49-20,2.58-30a379.45,379.45,0,0,1,10.44-58.2c3.39-12.54,7.61-24.79,13.67-36.33a82.57,82.57,0,0,1,15.19-21.14c6.94-6.79,15-11.65,24.68-13.09,20.9-3.11,42.59,4,55.12,26A62.59,62.59,0,0,1,268.41,319a234.83,234.83,0,0,1,.2,26.13c-.4,9-1.28,18-2.43,26.95a483.57,483.57,0,0,1-10.25,54.06c-10.44,42.35-24.82,83.28-44.09,122.45q-2.7,5.48-5.59,10.86a12.83,12.83,0,0,0-1.44,4.42,226.78,226.78,0,0,0-2.27,38.62c.56,16.19,3,32,9,47.23a82.36,82.36,0,0,0,15.65,25.92c6.64,7.27,14.45,12.8,24,15.48,12.53,3.51,24.2,1.26,35.05-5.69,7.68-4.92,13.64-11.57,18.56-19.18a102.93,102.93,0,0,0,12.82-29.74c1.28-4.83,2.21-9.76,3.29-14.65a12.32,12.32,0,0,0,.13-1.41c-.15-.16-.22-.28-.32-.33-11.41-5.9-20.19-14.75-27.74-24.92a101.37,101.37,0,0,1-17.28-35.42,61.78,61.78,0,0,1-2-19,40.11,40.11,0,0,1,7.81-22.18c3.65-4.92,8.55-7.16,14.46-7.6a50.61,50.61,0,0,1,21.38,3.34c15.72,5.76,28.54,15.3,37.68,29.46a58,58,0,0,1,9.32,29.58c0,.31.05.62.07,1a1.45,1.45,0,0,0,.54.09c9.16-2.5,17.72-6.21,25.19-12.21a45.34,45.34,0,0,0,9.59-10.76,3.21,3.21,0,0,0,.4-1.73c-.14-3.07-.35-6.13-.53-9.2-.32-5.38-.71-10.76-.95-16.15-.76-17.41-1.36-34.83-1.11-52.27.19-13.47.55-26.95,1.17-40.41.45-9.83,1.26-19.65,2.22-29.44,2-20.34,5-40.53,10.08-60.36,3.49-13.69,7.9-27.06,14.37-39.67a88,88,0,0,1,15.23-21.81c6.87-7,14.88-12,24.54-14.19a53.87,53.87,0,0,1,16.46-.89A51.52,51.52,0,0,1,501.51,271c11,5.82,18.69,14.76,23.78,26a62.74,62.74,0,0,1,5.41,21.57,236.23,236.23,0,0,1-.37,35.69c-2.51,31.86-9.13,62.94-17.82,93.62a594.52,594.52,0,0,1-36.17,96.26c-2.59,5.36-5.4,10.61-8,15.94a10.25,10.25,0,0,0-1,3,213.69,213.69,0,0,0-2.5,38.23c.44,15.81,2.68,31.33,8.18,46.25,4,10.93,9.58,21,17.73,29.41,6.75,7,14.64,12.18,24.18,14.52,11.63,2.85,22.5.74,32.65-5.44a60.19,60.19,0,0,0,17.73-17.13,98.51,98.51,0,0,0,14.16-30.75c1.48-5.3,2.51-10.73,3.73-16.1a12.83,12.83,0,0,0,.14-1.68c-8.68-2.57-15.29-8.11-21.4-14.3A112.89,112.89,0,0,1,535.29,564a63.84,63.84,0,0,1-3.93-24.91,41.8,41.8,0,0,1,7-21.15c3.13-4.77,7.53-6.79,13-6.89A39.34,39.34,0,0,1,565,513.55a94,94,0,0,1,25.64,14,108.37,108.37,0,0,1,25.49,26.14,62.55,62.55,0,0,1,9.62,21.49l.23,1a3.32,3.32,0,0,0,.78,0A67.86,67.86,0,0,0,649.54,565,46.16,46.16,0,0,0,660,553.48a3.47,3.47,0,0,0,.36-1.93c-.24-4.32-.55-8.63-.81-12.95-.34-5.88-.71-11.77-.95-17.65-.81-19.37-1.14-38.74-.73-58.11.24-11.22.74-22.43,1.35-33.64.46-8.44,1.14-16.88,2-25.3,2.44-24.48,6.24-48.71,13.51-72.29,3.59-11.64,8-22.93,14.29-33.44A74.35,74.35,0,0,1,705.9,277.9c10.31-8.36,22.13-11.59,35.28-10.49a53.64,53.64,0,0,1,19,4.91c11.38,5.47,19.37,14.26,24.78,25.52A63.56,63.56,0,0,1,791,321.91a249.7,249.7,0,0,1-.16,30.83c-.7,10.57-1.91,21.09-3.57,31.56-7.66,48.52-21.8,95.15-40.9,140.34q-8.11,19.22-18,37.64c-1,1.91-1.07,4-1.34,6a216.06,216.06,0,0,0-1.93,37.7c.65,16.13,3.25,31.9,9.35,46.95A80.35,80.35,0,0,0,750.94,679c6.61,6.85,14.31,12,23.62,14.4,12.29,3.16,23.73.88,34.31-5.95,7.62-4.92,13.54-11.51,18.44-19.06a105.36,105.36,0,0,0,13.29-31.35c1.16-4.48,2-9.05,2.95-13.58a7,7,0,0,0,.08-1l-2.56-.68a42.66,42.66,0,0,1-12.21-5.69,83.75,83.75,0,0,1-21.12-20.44,92.13,92.13,0,0,1-16.18-33.44,55.54,55.54,0,0,1-.59-25.89,42,42,0,0,1,11.76-20.82,11.81,11.81,0,0,1,7.73-3.39,30,30,0,0,1,10.76,1.37,63.78,63.78,0,0,1,13.27,5.68,121.3,121.3,0,0,1,43.33,40.88,77.85,77.85,0,0,1,7.94,16.37c.12.36.25.71.4,1.05.05.11.17.18.32.34A73.07,73.07,0,0,0,904,575.16c3.25-.92,6.42-2.13,9.62-3.19,2-.65,3.93-1.25,5.88-1.91a21.87,21.87,0,0,0,2.24-1,230.61,230.61,0,0,0,26.52-15.31,27.81,27.81,0,0,1,5.46-2.85c2.53-1,4.82-.15,6.69,1.75a20.06,20.06,0,0,1,4.37,7.4,71.16,71.16,0,0,1,3.84,16.62,47,47,0,0,1-.44,15.15c-1.53,7.21-5.29,12.67-12,16.12-16.29,8.36-33.14,15.2-51,19.38-4.2,1-8.47,1.72-12.71,2.57l-1.65.36c-.27,2.43-.49,4.8-.79,7.15a130.76,130.76,0,0,1-8.38,31.71,134.71,134.71,0,0,1-24,40.11c-12.87,14.66-28.42,25.25-47.28,30.69a101.79,101.79,0,0,1-35.71,3.69c-19.46-1.37-36.14-9.1-50.53-22.06-10.65-9.58-19-21-26-33.38-8.9-15.74-15.34-32.49-20.3-49.83a246.85,246.85,0,0,1-6.5-28.56c-.08-.48-.24-.94-.41-1.56-1,1-2,2-2.92,2.82A89.14,89.14,0,0,1,649,623.61a164.45,164.45,0,0,1-19.45,8.49,2.68,2.68,0,0,0-2.07,2.43,162.21,162.21,0,0,1-13.33,44.09,121.53,121.53,0,0,1-21.48,32.26,95.27,95.27,0,0,1-53.23,29,105.46,105.46,0,0,1-27.69,1.71,72.19,72.19,0,0,1-31.72-10.29c-10.52-6.3-19.24-14.61-26.85-24.14a175.71,175.71,0,0,1-22.79-38.37,286.23,286.23,0,0,1-19.5-61.86c0-.18-.11-.35-.26-.82-1.31,1.07-2.51,2.09-3.76,3.06s-2.6,2-3.94,2.89-2.71,1.81-4.11,2.65-2.81,1.64-4.25,2.4-2.9,1.49-4.38,2.17-2.86,1.28-4.31,1.86-3,1.17-4.59,1.69-3.09,1-4.65,1.48-3.14.85-4.72,1.24-3.17.72-4.83,1.09c-.45,2.62-.84,5.21-1.34,7.79-4.13,21.48-11.23,41.83-23,60.37a104.89,104.89,0,0,1-28.58,30.33A91.89,91.89,0,0,1,277,740.21a106.38,106.38,0,0,1-26.42,1.33,83.68,83.68,0,0,1-45.94-17.81c-11.41-8.84-20.41-19.77-27.73-32.13a129.73,129.73,0,0,1-14.85-35.8A57.91,57.91,0,0,1,160.42,645.49ZM446.17,501a11,11,0,0,0,.87-1.13c1-2,2.11-4,3-6a237.86,237.86,0,0,0,11.18-30.68c9.59-32,17-64.39,20.9-97.59a176.9,176.9,0,0,0,1.35-21.94c0-5.08-.24-10.17-1.83-15.05a19.94,19.94,0,0,0-2.27-4.49,3.87,3.87,0,0,0-3.55-1.68,13.27,13.27,0,0,0-9.07,4,29.88,29.88,0,0,0-5.77,7.85,75.32,75.32,0,0,0-5.73,14.27c-4.14,13.73-6.3,27.83-7.84,42-.83,7.79-1.54,15.6-1.95,23.41-.62,11.7-1,23.42-1.31,35.13-.17,6.77-.06,13.54.16,20.31.29,8.89.8,17.77,1.25,26.66C445.69,497.58,446,499.1,446.17,501Zm-262.5-.44.52.16c.36-.62.74-1.24,1.08-1.87a152.08,152.08,0,0,0,9.31-22.35A527.21,527.21,0,0,0,209.65,423c2.87-12.32,5.38-24.72,7.42-37.21,1.56-9.58,2.89-19.2,3.58-28.89a130.38,130.38,0,0,0,.31-19.16,34,34,0,0,0-1.9-10.11,19.7,19.7,0,0,0-2.37-4,3.31,3.31,0,0,0-2.81-1.24,12.29,12.29,0,0,0-7.4,2.33,21.27,21.27,0,0,0-5.22,5.36,49.68,49.68,0,0,0-5.58,10.63c-3.86,9.71-6.05,19.86-7.83,30.12a355.43,355.43,0,0,0-4.44,38.63q-1,17-1.48,34c-.38,14.36-.1,28.71.67,43C182.85,491.21,183.31,495.88,183.67,500.56Zm522.69,2.2.37.1c.63-1.12,1.29-2.21,1.87-3.35a188.47,188.47,0,0,0,10.56-26.89,588.61,588.61,0,0,0,20-81.84c2.38-13.84,4.29-27.73,4.59-41.8a73.37,73.37,0,0,0-.88-14.8,19.55,19.55,0,0,0-2.51-7.22,5,5,0,0,0-5.43-2.44,12.56,12.56,0,0,0-6.61,2.92,34,34,0,0,0-4.23,4.5,43.73,43.73,0,0,0-5.68,10.56,134.55,134.55,0,0,0-6.79,24.19A282.91,282.91,0,0,0,707,399.61c-.85,10.93-1.69,21.87-2.12,32.82s-.54,21.68-.41,32.51c.12,10.28.71,20.54,1.16,30.81C705.76,498.09,706.12,500.42,706.36,502.76Z"/></g></svg>