<svg id="Layer_1" data-name="Layer 1" xmlns="http://www.w3.org/2000/svg" viewBox="0 0 1000 1000"><defs><style>.cls-1{fill:#0d0d0d;}</style></defs><title>social-tw</title><g id="Icons"><g id="Black"><g id="Line-1"><path id="Twitter" class="cls-1" d="M869,265.28a295.76,295.76,0,0,1-86.94,24.44,155,155,0,0,0,66.58-85.87,298.09,298.09,0,0,1-96.22,37.62,149.34,149.34,0,0,0-110.51-49c-83.56,0-151.36,69.53-151.36,155.27a158.42,158.42,0,0,0,3.9,35.36c-125.85-6.49-237.4-68.24-312.13-162.28A158.08,158.08,0,0,0,161.86,299c0,53.84,26.72,101.37,67.36,129.23a148.73,148.73,0,0,1-68.62-19.37v1.91c0,75.25,52.2,138,121.52,152.24a144.54,144.54,0,0,1-39.9,5.47,147.24,147.24,0,0,1-28.51-2.76C233,627.34,288.87,672.26,355.16,673.45A299,299,0,0,1,167.1,740,303.25,303.25,0,0,1,131,737.83c67,44,146.64,69.7,232.11,69.7,278.56,0,430.83-236.56,430.83-441.76,0-6.75-.13-13.5-.39-20.12A310.61,310.61,0,0,0,869,265.28"/></g></g></g></svg>