<svg id="Layer_1" data-name="Layer 1" xmlns="http://www.w3.org/2000/svg" viewBox="0 0 1000 1000"><defs><style>.cls-1{fill:#0d0d0d;}</style></defs><title>social-ig</title><g id="Icons"><g id="Black"><g id="Line-1"><path id="Instagram" class="cls-1" d="M755.08,776.34H244.92a21.27,21.27,0,0,1-21.26-21.26V436.23h85c-11.07,15.94-14.82,45.68-14.82,64.56,0,113.83,92.83,206.44,206.92,206.44s206.93-92.61,206.93-206.44c0-18.88-2.68-48.17-16.41-64.56h85V755.08a21.27,21.27,0,0,1-21.26,21.26m-254.29-406c72.25,0,130.81,58.44,130.81,130.5S573,631.3,500.79,631.3,370,572.87,370,500.79s58.57-130.5,130.8-130.5M670.05,244.92h63.77a21.26,21.26,0,0,1,21.26,21.26V330a21.26,21.26,0,0,1-21.26,21.25H670.05A21.26,21.26,0,0,1,648.8,330V266.18a21.26,21.26,0,0,1,21.25-21.26m89.2-85H240.75a80.77,80.77,0,0,0-80.86,80.67V759.44a80.77,80.77,0,0,0,80.86,80.67h518.5a80.77,80.77,0,0,0,80.86-80.67V240.56a80.77,80.77,0,0,0-80.86-80.67"/></g></g></g></svg>