<svg id="Layer_1" data-name="Layer 1" xmlns="http://www.w3.org/2000/svg" viewBox="0 0 1000 1000"><defs><style>.cls-1{fill:#0d0d0d;}</style></defs><title>social-pn</title><g id="Icons"><g id="Black"><g id="Line-2"><path id="Pinterest" class="cls-1" d="M500,164c-181.2,0-328.13,146.89-328.13,328.13,0,134.31,80.8,249.76,196.44,300.5-.93-22.88-.16-50.43,5.67-75.36,6.33-26.62,42.21-178.76,42.21-178.76s-10.45-21-10.45-51.94c0-48.62,28.2-84.92,63.28-84.92,29.82,0,44.25,22.41,44.25,49.27,0,30-19.14,74.85-29,116.41-8.22,34.84,17.44,63.2,51.78,63.2,62.16,0,104-79.83,104-174.44,0-71.89-48.42-125.71-136.51-125.71-99.51,0-161.52,74.2-161.52,157.08,0,28.63,8.41,48.77,21.61,64.36,6.09,7.21,6.9,10.07,4.71,18.33-1.55,6-5.17,20.56-6.68,26.31-2.2,8.3-8.91,11.31-16.4,8.22-45.88-18.71-67.21-68.91-67.21-125.36,0-93.19,78.59-205,234.48-205,125.28,0,207.74,90.72,207.74,188,0,128.72-71.54,224.87-177.07,224.87-35.38,0-68.72-19.13-80.14-40.86,0,0-19.06,75.59-23.07,90.18-6.95,25.27-20.57,50.58-33,70.26a327.6,327.6,0,0,0,93,13.47c181.19,0,328.09-146.9,328.09-328.09S681.21,164,500,164"/></g></g></g></svg>