<svg id="Layer_1" data-name="Layer 1" xmlns="http://www.w3.org/2000/svg" viewBox="0 0 1000 1000"><defs><style>.cls-1{fill:#010101;}</style></defs><title>social-be</title><path id="Behance" class="cls-1" d="M809.49,334.19H617.1V286.4H809.51v47.79ZM489,530.15q18.63,28.85,18.62,70c0,28.34-7,53.77-21.22,76.23a132.29,132.29,0,0,1-33.8,37.52q-22.81,17.54-53.92,24a333.23,333.23,0,0,1-67.45,6.46H116.09V266.58H346.82c58.15.95,99.38,17.8,123.73,50.89q21.92,30.45,21.85,72.95c0,29.21-7.33,52.58-22.08,70.34Q458,475.7,433.94,488C458.25,496.85,476.7,510.86,489,530.15ZM226.27,454.94H327.36c20.78,0,37.57-3.95,50.51-11.84s19.38-21.9,19.38-42c0-22.22-8.55-37-25.67-44.07-14.71-4.94-33.54-7.48-56.39-7.48H226.27ZM407,593.31c0-24.81-10.14-42-30.39-51.18-11.32-5.23-27.29-7.9-47.77-8.09H226.27V661.35h101c20.74,0,36.79-2.71,48.38-8.37C396.5,642.56,407,622.74,407,593.31Zm473.89-77.72c2.33,15.63,3.38,38.31,3,67.95H634.66q2.05,51.59,35.76,72.21c13.58,8.63,30,12.84,49.32,12.84,20.33,0,36.9-5.14,49.66-15.7,7-5.6,13.08-13.51,18.38-23.48H879.1c-2.39,20.31-13.38,40.92-33.15,61.85q-45.91,49.92-128.7,50-68.34,0-120.55-42.11T544.52,562q0-89.05,47.09-136.44c31.54-31.68,72.25-47.46,122.43-47.46q44.61,0,80.47,16t59.07,50.67C867.62,465.18,876.66,488.75,880.87,515.59ZM791,524.5q-2.52-35.67-23.91-54.08c-14.18-12.33-31.9-18.53-53-18.53-23,0-40.77,6.62-53.39,19.63s-20.61,30.64-23.85,53H791Z"/></svg>